<svg xmlns="http://www.w3.org/2000/svg" xmlns:v="https://vecta.io/nano" width="1296" height="500" fill="none"><style><![CDATA[.B{color-interpolation-filters:sRGB}.C{flood-opacity:0}]]></style><g clip-path="url(#P)"><path d="M948.783 597.752l4.478-.149-5.275.884-5.473.539 6.27-1.274zm-292.572-421.7l1.645-9.049 3.245-9.993-2.495 10.316-2.395 8.726zm-1.674 10.107l.438-2.943.935-3.421-1.373 6.364zm316.892 409.006l5.27-.047-6.565.847-4.193.26 5.488-1.06zm-10.298-.129l6.616.084-8.772 1.525-5.902.224 8.059-1.836-.001.003zM650.789 197.193c.293-3.378.716-6.898 1.067-10.342l4.394-14.915-1.958 11.117-3.502 14.137-.001.003zm-.795 11.494l.504-7.305 2.783-11.502-.995 6.703-2.291 12.101-.001.003zm-.561 8.156l.127-1.855.215-1.186-.341 3.039-.001.002zm355.177 376.66l.89.013-2.01.112 1.12-.125zm-10.224-.32l4.847.184-5.995.664-5.691.203 6.839-1.051zm-10.298-.459l6.411.315-8.285 1.271-6.846.098 8.717-1.685.003.001zm-10.172-.645l7.247.459-9.844 1.895-7.141-.091 9.735-2.264.003.001zM646.388 215.41l.012-9.969 4.38-14.917-.967 10.719-3.428 14.166.003.001zm.298 11.453l-.227-8.754c.929-4.123 2.011-8.419 3.072-12.684l-.65 9.427-2.198 12.01.003.001zm.303 11.601c-.117-2.665-.135-5.451-.214-8.171.488-2.968 1.09-6.072 1.681-9.14l-.427 8.371-1.043 8.939.003.001zm.475 7.763l-.217-3.492c.138-1.477.313-2.999.497-4.505l-.282 7.996.002.001zm378.976 346.541l1.18.089-2.47.022 1.29-.111zm-10.22-.741l5.66.413-7.03.487-4.9-.066 6.27-.834zm-9.84-.928l6.6.631-8.52 1.057-6.588-.192 8.508-1.496zm-9.825-1.056l7.105.797-9.413 1.622-7.571-.298 9.866-2.127.013.006zm-9.771-1.18l7.527.912-10.334 2.22-7.76-.505 10.567-2.627zM642.499 233.406l-1.118-9.136 4.301-16.383.078 10.119-3.265 15.409.004-.009zm1.514 10.708l-1.223-8.634 3.043-14.683.245 9.394-2.065 13.932v-.009zm1.605 10.679l-1.254-8.192 1.814-12.415.354 8.493-.915 12.124.001-.01zm1.703 9.417l-1.2-6.653.743-9.816.392 6.082c-.043 3.54.049 6.916.059 10.394l.006-.007zm1.428 7.908l-.707-3.862-.02-3.016c.204 2.354.499 4.572.721 6.885l.006-.007zm399.201 320.874l1.71.207-3.64-.114 1.93-.093zm-9.88-1.269l5.39.732-6.69.207-5.67-.289 6.97-.65zm-9.78-1.39l6.85.978-8.77.748-6.71-.49 8.63-1.236zm-9.54-1.52l7.23 1.163-9.87 1.348-7.12-.672 9.77-1.85-.01.011zm-9.42-1.66l7.36 1.331-10.42 1.908-7.586-.797 10.656-2.453-.01.011zm-9.354-1.766l7.564 1.441-11.102 2.502-7.761-.931 11.305-3.026-.006.014zM638.985 250.365l-2.248-8.255c1.254-5.163 2.727-10.568 4.137-15.901l1.2 9.234-3.085 14.911-.004.011zm2.715 9.55l-2.297-8.074c.871-4.647 1.953-9.519 2.964-14.32l1.279 9.075-1.942 13.308-.004.011zm2.816 9.389l-2.335-7.702c.513-4.066 1.19-8.325 1.82-12.53l1.401 8.514-.882 11.707-.004.011zm2.889 8.91l-2.282-7.033c.19-3.529.492-7.196.778-10.837l1.436 7.968.073 9.891-.005.011zm2.874 8.749l-2.085-6.283-.129-8.307 1.408 6.843.805 7.718.001.029zm2.311 6.305l-1.177-3.215-.606-4.823 1.791 8.018-.008.02zm415.83 300.986l2.43.442-5.1-.471 2.67.029zm-9.32-1.841l5.49 1.089-6.67-.077-5.85-.657 7.03-.355zm-9.3-1.942l6.45 1.377-8.34.428-6.96-.865 8.85-.932v-.008zm-9.23-2.037l7 1.562-9.54 1.017-7.42-1.036 9.95-1.538.01-.005zm-9.19-2.134l7.31 1.715-10.46 1.611-7.5-1.206 10.65-2.12zm-9.01-2.264l7.38 1.871-11.08 2.186-7.64-1.338 11.34-2.719zm-8.94-2.358l7.47 1.981-11.66 2.765-7.76-1.459 11.95-3.301v.014zm-377.397-314.41l-3.37-7.266 3.702-16.476c.733 2.828 1.542 5.54 2.31 8.318l-2.634 15.411-.008.013zm3.919 8.4l-3.386-7.257 2.547-15.03 2.351 8.226c-.589 4.779-1 9.365-1.504 14.048l-.008.013zm4.01 8.181l-3.425-6.929 1.443-13.463 2.428 7.789-.438 12.59-.008.013zm4.061 8.02l-3.392-6.729.424-11.941 2.441 7.534.527 11.136zm4.098 7.854l-3.313-6.301-.479-10.108 2.391 6.854 1.415 9.561-.014-.006zm3.959 7.237l-2.983-5.45-1.187-8.087 2.106 5.761 2.082 7.771-.018.005zm3.385 6.184l-1.971-3.603-.911-3.425c.943 2.396 1.942 4.681 2.896 7.033l-.014-.005zm419.785 281.073l5.68 1.567-6.96-.511-5.57-1.011 6.85-.045zm-8.84-2.558l6.49 1.88-8.45.017-6.59-1.293 8.54-.607.01.003zm-8.81-2.642l6.84 2.071-9.35.627-7.16-1.483 9.67-1.216v.001zm-8.75-2.713l7.08 2.204-10.16 1.256-7.47-1.63 10.55-1.831v.001zm-8.7-2.78l7.23 2.315-10.85 1.888-7.56-1.772 11.18-2.437v.006zm-8.59-2.868l7.25 2.421-11.47 2.483-7.55-1.903 11.78-3.018-.01.017zm-8.52-2.942l7.25 2.526-11.97 3.065-7.62-1.996 12.34-3.601v.006zM633.318 283.299l-4.441-6.29c1.045-5.14 2.337-10.562 3.536-15.877 1.117 2.487 2.288 4.877 3.424 7.332l-2.519 14.835zm5.062 7.178l-4.449-6.296c.697-4.722 1.602-9.682 2.434-14.563l3.452 7.388-1.437 13.471zm5.127 6.987l-4.464-6.048c.36-4.275.89-8.741 1.353-13.158l3.518 7.033-.403 12.162-.004.011zm5.163 6.944l-4.438-5.967c.04-3.858.206-7.858.348-11.838l3.536 6.989.558 10.805-.004.011zm5.177 6.795l-4.359-5.683c-.257-3.391-.415-6.882-.59-10.367l3.52 6.582 1.437 9.449-.008.019zm5.126 6.561l-4.167-5.331c-.508-2.921-.96-5.914-1.411-8.914l3.44 6.284 2.145 7.942-.007.019zm4.961 6.237l-3.719-4.692-1.957-6.95 3.139 5.458 2.537 6.184zm3.958 4.82l-2.222-2.707-1.794-4.095 4.012 6.81.004-.008zM1073.64 587.36l6.85 2.777-10.06.816-7.15-2.139 10.36-1.454zm-8.27-3.401l6.97 2.875-10.72 1.465-7.3-2.252 11.05-2.088zm-8.23-3.446l7.04 2.95-11.33 2.114-7.37-2.35 11.66-2.714zm-8.19-3.487l7.07 3.013-11.89 2.741-7.34-2.451 12.17-3.3-.01-.003zm-8.13-3.545l7.06 3.09-12.36 3.341-7.34-2.537 12.64-3.883v-.011zM631.249 299.256l-5.513-5.317 2.958-15.986 4.492 6.355c-.744 5.109-1.294 9.974-1.929 14.951l-.008-.003zm6.164 5.946l-5.513-5.316 1.896-14.698 4.508 6.38-.883 13.637-.008-.003zm6.197 5.823l-5.513-5.17.871-13.347 4.546 6.121.104 12.399-.008-.003zm6.214 5.826l-5.49-5.148-.093-12.103 4.551 6.123 1.04 11.131-.008-.003zm6.216 5.716l-5.426-4.987-.999-10.756 4.522 5.849 1.912 9.898-.009-.004zm6.2 5.653l-5.321-4.85-1.823-9.458 4.465 5.712 2.688 8.599-.009-.003zm6.122 5.514l-5.088-4.572-2.487-7.961 4.276 5.288 3.307 7.248-.008-.003zm5.829 5.173l-4.534-4.024-2.872-6.293 3.786 4.61 3.628 5.71-.008-.003zm4.738 4.199l-2.843-2.522-1.878-2.959 4.729 5.485-.008-.004zm399.191 238.301l6.73 3.551-11.14 1.682-7.08-2.914 11.49-2.319zm-7.76-4.116l6.78 3.611-11.72 2.339-7.14-2.982 12.08-2.968zm-7.75-4.126l6.81 3.628-12.25 2.978-7.14-3.04 12.58-3.566zm-7.74-4.138l6.82 3.652-12.74 3.576-7.11-3.11 13.03-4.118zM629.369 314.566l-6.526-4.294c.802-5.039 1.795-10.298 2.746-15.504l5.555 5.355-1.775 14.443zm7.22 4.738l-6.514-4.28c.473-4.644 1.117-9.481 1.725-14.276l5.566 5.36-.777 13.196zm7.214 4.711l-6.488-4.239c.158-4.24.459-8.647.73-13.021l5.57 5.228.187 12.034.001-.002zm7.209 4.708l-6.453-4.215c-.138-3.864-.164-7.863-.213-11.832l5.57 5.227 1.095 10.823.001-.003zm7.191 4.663l-6.386-4.141c-.422-3.464-.755-7.043-1.105-10.594l5.553 5.075 1.937 9.663.001-.003zm7.162 4.643l-6.289-4.075c-.691-3.094-1.304-6.268-1.926-9.44l5.511 5.02 2.703 8.497.001-.002zm7.095 4.578l-6.113-3.942c-.916-2.684-1.783-5.434-2.653-8.186l5.393 4.822 3.372 7.308.001-.002zm6.947 4.469l-5.781-3.72-3.247-6.907 5.184 4.594 3.829 6.03.015.003zm6.609 4.244l-5.104-3.273-3.466-5.329 4.648 4.047 3.921 4.558.001-.003zm5.212 3.315l-3.014-1.925-2.535-2.862 5.544 4.801.005-.014zm392.562 219.207l6.47 4.25-12.05 2.573-6.83-3.633 12.41-3.19zm-7.31-4.772l6.52 4.247-12.57 3.219-6.87-3.647 12.92-3.819zm-7.32-4.749l6.54 4.245-13.04 3.836-6.87-3.675 13.37-4.403v-.003zM628.089 329.595l-7.536-3.275 2.185-15.28 6.562 4.318c-.487 4.842-.835 9.526-1.212 14.239l.001-.002zm8.22 3.596l-7.5-3.285 1.198-14.092 6.564 4.312c-.163 4.445-.205 8.737-.263 13.068l.001-.003zm8.19 3.624l-7.462-3.303.261-12.917 6.556 4.278c.153 4.061.408 7.99.644 11.944l.001-.002zm8.16 3.611l-7.41-3.279-.642-11.775 6.535 4.266c.455 3.662.995 7.214 1.516 10.791l.001-.003zm8.125 3.652l-7.347-3.302-1.491-10.613 6.496 4.209 2.341 9.708.001-.002zm8.076 3.632l-7.247-3.26-2.301-9.511 6.444 4.173 3.103 8.601.001-.003zm8.012 3.639l-7.113-3.235-3.019-8.361 6.339 4.075 3.792 7.524.001-.003zm7.91 3.612l-6.887-3.144-3.649-7.233 6.168 3.97 4.366 6.409.002-.002zm7.709 3.536l-6.483-2.979-4.088-5.995 5.837 3.738 4.733 5.239.001-.003zm7.282 3.375l-5.667-2.627-4.127-4.566 5.116 3.277 4.675 3.921.003-.005zm5.5 2.548l-3.079-1.427-2.57-2.158 5.648 3.588.001-.003zm385.287 200.31l6.18 4.874-12.85 3.475-6.54-4.274 13.21-4.075zm-6.92-5.366l6.24 4.831-13.31 4.105-6.58-4.263 13.65-4.673zM627.056 344.142l-8.47-2.263 1.873-14.859 7.575 3.29-.978 13.832zm9.176 2.511l-8.416-2.305c.235-4.474.587-9.086.936-13.715l7.547 3.304-.085 12.721.018-.005zm9.111 2.562l-8.359-2.352c-.054-4.111.001-8.354.056-12.597l7.519 3.328.766 11.627.018-.006zm9.051 2.554l-8.29-2.341c-.325-3.76-.562-7.632-.799-11.503l7.482 3.31 1.581 10.537.026-.003zm9.008 2.656L655.183 352c-.588-3.406-1.099-6.909-1.627-10.419l7.439 3.344 2.389 9.505.018-.005zm8.926 2.632l-8.103-2.389c-.836-3.065-1.613-6.215-2.388-9.364l7.369 3.313 3.093 8.441.029-.001zm8.863 2.709l-7.987-2.451c-1.064-2.717-2.081-5.507-3.096-8.293l7.286 3.319 3.779 7.43.018-.005zm8.754 2.704l-7.775-2.415c-1.287-2.385-2.513-4.822-3.75-7.26l7.138 3.261 4.369 6.42.018-.006zm8.608 2.711l-7.489-2.367-4.281-6.189 6.917 3.187 4.83 5.389.023-.02zm8.421 2.72l-7.044-2.278-4.621-5.065 6.515 3.02 5.132 4.329.018-.006zm7.776 2.511l-5.973-1.927-4.529-3.784 5.637 2.628 4.865 3.083zm5.958 2.021l-3.168-1.072-2.596-1.654 5.749 2.723.015.003zm-94.178-14.091l-9.395-1.273 1.391-14.487 8.506 2.274c-.243 4.579-.394 9.057-.512 13.495l.01-.009zm10.071 1.484l-9.308-1.366.49-13.388 8.461 2.319c.048 4.214.191 8.334.357 12.435zm10.005 1.532l-9.254-1.408-.359-12.341 8.414 2.365c.34 3.851.764 7.619 1.19 11.38l.009.004zm9.918 1.557l-9.163-1.442-1.184-11.292 8.356 2.367c.611 3.51 1.299 6.936 1.983 10.364l.008.003zm9.853 1.685l-9.082-1.554-1.973-10.268 8.301 2.451 2.745 9.368.009.003zm9.742 1.667l-8.95-1.534-2.717-9.261 8.208 2.42c1.116 2.829 2.29 5.592 3.451 8.371l.008.004zm9.681 1.807l-8.853-1.667-3.41-8.257 8.135 2.503 4.119 7.418.009.003zm9.544 1.808l-8.643-1.638-4.056-7.288 7.979 2.463 4.711 6.46.009.003zm9.425 1.876l-8.411-1.685-4.608-6.304 7.802 2.477 5.198 5.504.019.008zm9.253 1.925l-8.058-1.679-5.032-5.311 7.503 2.423 5.568 4.56.019.007zm8.842 1.857l-7.365-1.55-5.246-4.281 6.976 2.292 5.635 3.539zm8.43 1.913l-6.377-1.448-4.857-3.055 6.122 2.065 5.092 2.43.02.008zm6.063 1.379l-2.979-.677-2.674-1.278 5.629 1.961.024-.006zm-111.005-6.677l-10.225-.298.951-14.077 9.434 1.279-.179 13.088.019.008zm10.921.493l-10.137-.484.139-13.019 9.368 1.383c.135 4.099.337 8.147.608 12.111l.022.009zm10.82.53l-10.051-.492-.653-12.03 9.303 1.428 1.379 11.086.022.008zm10.717.605l-9.94-.563c-.52-3.611-.978-7.3-1.39-11.024l9.227 1.458c.633 3.405 1.325 6.804 2.081 10.12l.022.009zm10.635.737l-9.855-.692c-.756-3.294-1.453-6.663-2.139-10.047l9.16 1.565 2.812 9.165.022.009zm10.508.735l-9.704-.673c-.983-2.98-1.911-6.031-2.834-9.092l9.047 1.546 3.455 8.205.036.014zm10.435.919l-9.624-.867c-1.194-2.669-2.327-5.4-3.474-8.14l8.976 1.7 4.097 7.307h.025zm10.276.93l-9.402-.85c-1.393-2.366-2.745-4.796-4.103-7.218l8.804 1.664 4.67 6.402.031.002zm10.171 1.044l-9.217-.959-4.653-6.3 8.65 1.747 5.195 5.512h.025zm10.038 1.122l-8.943-1-5.126-5.387 8.385 1.744 5.665 4.645.019-.002zm9.72 1.125l-8.442-.982-5.488-4.481 7.974 1.713 5.956 3.75zm9.572 1.285l-7.906-1.063-5.573-3.505 7.455 1.693 6.009 2.879.015-.004zm8.59 1.148l-6.335-.85-5.186-2.477 5.828 1.334 5.676 2.002.017-.009zm5.785.857l-2.423-.379-2.064-.728 4.487 1.107zm-128.014 1.89l-11.071.644c.11-4.44.379-9.059.615-13.66l10.27.299.191 12.703-.005.014zm11.747-.44l-10.958.413c-.142-4.13-.175-8.385-.192-12.662l10.189.47.966 11.766-.005.013zm11.626-.432l-10.859.403c-.382-3.833-.688-7.754-.969-11.716l10.106.495 1.728 10.804-.006.014zm11.513-.297l-10.753.271-1.715-10.755 10.017.578 2.457 9.892-.006.014zm11.396-.177l-10.635.164-2.436-9.846 9.931.69 3.146 8.978-.006.014zm11.242-.155l-10.472.143-3.12-8.921 9.797.668 3.8 8.096-.005.014zm11.171.081l-10.38-.075-3.766-8.029 9.731.878 4.42 7.212-.005.014zm10.974.079l-10.133-.07-4.368-7.15 9.538.859 4.969 6.348-.006.013zm10.871.239l-9.978-.231-4.913-6.288 9.412.997 5.485 5.509-.006.013zm10.699.331l-9.683-.307-5.39-5.433 9.164 1.027 5.925 4.703-.016.01zm10.422.371l-9.258-.337-5.771-4.592 8.837 1.061 6.192 3.868zm10.351.568l-8.905-.49-5.958-3.722 8.519 1.142 6.349 3.057-.005.013zm9.722.535l-7.923-.435-5.923-2.87 7.541 1.012 6.311 2.28-.006.013zm9.192.667l-6.817-.535-5.051-1.855 6.846 1.076 5.028 1.3-.006.014zm6.803.548l-2.943-.237-2.06-.552 5.008.775-.005.014zm-147.042 11.158l-11.8 1.498.011-13.227 11.113-.647c.154 4.204.418 8.283.681 12.362l-.005.014zm12.479-1.385l-11.691 1.284-.685-12.335 11.021-.41c.391 3.907.868 7.695 1.355 11.461zm12.334-1.352l-11.557 1.267-1.373-11.392 10.915-.408c.628 3.578 1.312 7.072 2.02 10.535l-.005-.002zm12.205-1.162l-11.453 1.073-2.024-10.476 10.816-.268 2.68 9.679-.019-.008zm12.105-1.045l-11.317.986-2.663-9.618 10.709-.164 3.271 8.796zm11.912-.991l-11.157.919-3.271-8.739 10.557-.135 3.865 7.953.006.002zm11.835-.754l-11.047.705c-1.315-2.59-2.587-5.239-3.853-7.898l10.478.076 4.417 7.115.005.002zm11.62-.74l-10.803.689c-1.493-2.313-2.952-4.689-4.409-7.061l10.266.074 4.941 6.296.005.002zm11.549-.549l-10.669.484-4.924-6.234 10.147.254 5.441 5.507.005-.011zm11.374-.446l-10.416.406-5.402-5.428 9.884.302 5.925 4.729.009-.009zm11.11-.369l-10.045.326-5.834-4.642 9.577.379 6.302 3.937zm11.052-.15l-9.762.132-6.146-3.84 9.306.511 6.592 3.206.01-.009zm10.515-.142l-8.963.119-6.354-3.074 8.536.466 6.771 2.498.01-.009zm10.311.064l-8.361-.105-6.176-2.265 8.161.662 6.366 1.717.01-.009zm9.281.123l-6.444-.086-5.361-1.431 6.158.492 5.637 1.034.01-.009zm5.548.072l-1.334-.015-1.663-.304 2.987.328.01-.009zm-164.315 21.537l-12.565 2.315c-.173-4.132-.119-8.534-.143-12.843l11.842-1.5.866 12.028zm13.231-2.271l-12.444 2.135c-.386-3.873-.604-7.953-.863-11.979l11.737-1.289 1.575 11.135-.005-.002zm13.06-2.242l-12.29 2.109c-.598-3.6-1.072-7.352-1.561-11.091l11.613-1.273c.705 3.465 1.442 6.91 2.244 10.257l-.006-.002zm12.935-1.977l-12.179 1.848c-.799-3.33-1.522-6.764-2.235-10.206l11.513-1.074 2.906 9.434-.005-.002zm12.767-1.9l-12.015 1.788c-1.014-3.081-1.956-6.216-2.889-9.389l11.386-.994 3.524 8.597-.006-.002zm12.594-1.79l-11.845 1.677-3.502-8.547 11.228-.922 4.125 7.794-.006-.002zm12.481-1.558l-11.717 1.464-4.097-7.749 11.141-.709 4.679 6.996-.006-.002zm12.244-1.528l-11.456 1.43-4.647-6.948 10.914-.697 5.194 6.217-.005-.002zm12.158-1.285l-11.333 1.18-5.151-6.165 10.817-.474 5.672 5.461-.005-.002zm11.94-1.192l-11.031 1.101-5.614-5.406 10.556-.415 6.095 4.722-.006-.002zm11.697-1.088l-10.689.988-6.017-4.663 10.283-.309 6.423 3.984zm11.648-.853l-10.463.769-6.305-3.913 10.066-.137 6.708 3.283-.006-.002zm11.19-.823l-9.81.723-6.526-3.196 9.394-.124 6.947 2.599-.005-.002zm11.143-.585l-9.508.464-6.535-2.478 9.201.117 6.847 1.899-.005-.002zm10.616-.489l-8.436.386-6.182-1.756 7.86.102 6.758 1.268zm9.205-.396l-6.373.269-5.383-1.084 6.59.265 5.164.556.002-.006zm5.858-.095l-.957.012-.602-.084c.526.035 1.047.052 1.557.077l.002-.005zm-183.186 32.374l-13.192 3.079-.9-12.355 12.564-2.32c.418 3.978 1.003 7.754 1.526 11.602l.002-.006zm13.847-3.115l-13.049 2.936-1.532-11.562 12.488-2.143c.62 3.688 1.372 7.21 2.091 10.775l.002-.006zm13.66-3.073l-12.88 2.884-2.104-10.726 12.344-2.117c.823 3.406 1.733 6.678 2.638 9.964l.002-.005zm13.547-2.744l-12.786 2.585-2.642-9.928 12.245-1.863c1.011 3.143 2.088 6.185 3.181 9.211l.002-.005zm13.348-2.701l-12.596 2.548-3.194-9.147 12.08-1.798 3.708 8.403.002-.006zm13.185-2.542l-12.437 2.391-3.707-8.354 11.92-1.674 4.224 7.637zm13.056-2.327l-12.293 2.194-4.217-7.605 11.803-1.475 4.704 6.892.003-.006zm12.805-2.279l-12.032 2.144-4.699-6.848 11.554-1.445 5.176 6.152.001-.003zm12.751-2.004l-11.943 1.861-5.16-6.108 11.466-1.182 5.636 5.431.001-.002zm12.516-1.907l-11.656 1.777-5.607-5.375 11.174-1.115 6.089 4.713zm12.287-1.783l-11.335 1.639-6.032-4.672 10.901-.978 6.466 4.011zm12.228-1.553l-11.121 1.403-6.385-3.96 10.699-.787 6.807 3.344zm11.778-1.475l-10.512 1.324-6.693-3.287 10.116-.743 7.089 2.706zm11.725-1.233l-10.258 1.056-6.879-2.627 10.05-.46 7.089 2.026-.002.005zm11.27-1.103l-9.394.918-6.798-1.952 9.128-.417 7.066 1.446-.002.005zm10.379-.976l-8.037.746-6.576-1.352 8.49-.215 6.123.821zm10.078-.685l-6.57.445-4.925-.662 6.849-.113 4.648.325-.002.005zm6.456-.439l-1.335.093-1.631-.117 2.957.014.009.01zm62.333 213.463l-7.456 1.78c-138.316 17.075-259.77-16.441-272.93-179.523l13.228-3.082c21.142 153.129 136.892 190.548 267.158 180.825zm14.068-3.482l-9.073 2.292c-131.888 10.976-249.864-25.405-271.344-179.819l13.092-2.947c29.513 144.931 142.759 184.66 267.319 180.472l.006.002zm13.717-3.633l-10.248 2.714c-125.552 4.993-240.194-34.077-270.016-179.723l12.929-2.91c37.899 136.53 148.537 178.545 267.329 179.917l.006.002zm13.716-3.905l-10.898 3.147c-119.503-.765-231.198-42.28-269.387-179.318l12.836-2.584c46.362 127.82 154.444 171.899 267.444 178.752l.005.003zm13.903-4.113l-11.857 3.512c-113.427-6.444-222.151-50.213-268.75-178.322l12.658-2.559c54.869 119.171 160.565 165.162 267.943 177.367l.006.002zm13.954-4.342l-12.258 3.814C846.393 577.632 740.229 531.87 685.17 412.539l12.51-2.395c63.369 110.383 166.789 158.129 268.631 175.566l.005.003zm14.024-4.592l-12.53 4.127c-102.045-17.178-205.814-64.756-269.373-175.236l12.376-2.205c71.882 101.465 173.128 150.778 269.521 173.312l.006.002zm14.276-4.823l-12.998 4.397c-96.508-22.346-197.99-71.52-270.028-173.031l12.117-2.161c80.435 92.609 179.752 143.324 270.904 170.793l.005.002zm14.464-5.074l-13.34 4.68c-91.206-27.332-190.665-77.937-271.224-170.545l12.055-1.865c88.966 83.621 186.487 135.499 272.499 167.727l.01.003zm14.64-5.369l-13.61 5.004c-86.01-32.118-183.596-83.919-272.659-167.502l11.762-1.799c97.523 74.623 193.437 127.48 274.497 164.298l.01-.001zm14.87-5.596l-13.95 5.254c-81.002-36.741-176.916-89.535-274.47-164.103l11.522-1.639c106.085 65.611 200.606 119.252 276.888 160.491l.01-.003zm15.08-5.83l-14.22 5.506c-76.19-41.17-170.625-94.745-276.647-160.307l11.319-1.43c114.595 56.571 207.896 110.765 279.548 156.228v.003zm15.25-6.109l-14.46 5.786c-71.526-45.406-164.671-99.542-279.1-156.06l10.76-1.357c123.209 47.535 215.57 102.093 282.8 151.631zm15.48-6.379l-14.73 6.076c-67.08-49.474-159.212-103.983-282.081-151.511l10.712-1.048c131.623 38.465 223.149 93.124 286.099 146.472v.011zm15.67-6.618l-14.96 6.322c-62.77-53.255-153.931-107.837-284.937-146.361l9.905-.965c140.139 29.394 231.082 83.981 289.992 140.993v.011zm-22.65 18.46l14.3-5.53 5.99 5.353-13.98 4.992-6.3-4.826-.01.011zm-14.81 5.529l14.05-5.245 6.29 4.785-13.73 4.704-6.61-4.255v.011zm-14.59 5.257l13.77-4.957 6.6 4.23-13.48 4.425-6.89-3.698zm-14.33 5.017l13.45-4.701 6.84 3.682-13.16 4.169-7.13-3.159v.009zm-14.06 4.776l13.09-4.447 7.08 3.137-12.8 3.914-7.36-2.612-.01.008zm-13.91 4.481l12.84-4.135 7.29 2.593-12.49 3.632-7.63-2.099-.01.009zm-13.55 4.208l12.37-3.832 7.54 2.075-12.198 3.345-7.712-1.588zm-13.162 3.974l11.757-3.541 7.615 1.569-11.72 3.082-7.652-1.11zm-13.035 3.675l11.357-3.203 7.51 1.092-11.076 2.767-7.788-.665-.003.009zm-12.625 3.404l10.692-2.874 7.445.677-10.502 2.388-7.635-.191zm-12.129 3.147l9.68-2.514 7.044.249-9.336 2.023-7.401.25.013-.008zm-11.453 2.733l8.364-1.967 6.079-.117-7.759 1.576-6.684.508zm-9.249 2.175l4.649-1.094 4.592-.325-5.837 1.031-3.399.39-.005-.002zM601.544 431.147c4.618 166.078 121.363 200.442 259.888 181.728-149.897 28.477-276.763.354-273.388-178.398l13.506-3.328-.006-.002zm-.223-13.998c-.029 4.551.107 8.904.22 13.286l-13.456 3.322.47-14.146 12.764-2.463.002.001zm.53-14.526l-.54 13.816-12.715 2.461c.271-4.736.745-9.691 1.202-14.636l12.051-1.642.002.001zm.792-14.966c-.364 4.884-.54 9.549-.753 14.26l-12.022 1.634 1.468-15.12 11.296-.778.011.004zm1.529-15.454l-1.46 14.751-11.271.766c.633-5.07 1.488-10.396 2.305-15.674l10.415.153.011.004zm1.892-15.916l-1.824 15.218-10.392-.156 2.655-16.197 9.55 1.131.011.004zm2.427-16.35l-2.333 15.657-9.53-1.132 3.262-16.712 8.59 2.183.011.004zm2.97-16.803l-2.867 16.11-8.562-2.172 3.817-17.205 7.601 3.262.011.005zm3.354-17.336l-3.219 16.636-7.586-3.253 4.237-17.735 6.568 4.352zm4.023-17.683l-3.881 16.941-6.537-4.333c1.501-5.873 3.225-11.992 4.917-18.075l5.49 5.462.011.005zm4.317-18.365l-4.128 17.569-5.487-5.44 5.207-18.685 4.397 6.552.011.004zm5.028-18.479l-4.79 17.588-4.374-6.52 5.892-18.697 3.263 7.625.009.004zm5.344-19.286l-5.062 18.202-3.243-7.565 6.171-19.289 2.137 8.653-.003-.001zm5.934-19.324l-5.536 18.026-1.911-7.761-.008-.029-.015-.034-.242-.549 6.594-18.91.266 1.095c.244 2.776.563 5.451.855 8.163l-.003-.001zm6.364-20.143l-5.841 18.439-.682-6.541.008-.02-.01-.032-.529-2.164 6.85-19.269.28 2.967c-.069 2.256-.061 4.428-.073 6.621l-.003-.001zm6.821-20.104l-6.106 17.99.043-4.511.007-.019.007-.017-.411-4.407 7.132-18.793-.133 4.644c-.216 1.741-.368 3.415-.525 5.119l-.014-.006zm7.3-20.871l-6.294 17.903.216-2.08.006-.014.193-6.668 7.301-18.931-.904 6.983c-.191.948-.352 1.875-.515 2.808l-.003-.001zm7.591-20.576l-6.282 17.032 1.141-8.793 7.161-17.547-1.809 8.454-.208.855-.003-.001zm7.902-20.841l-6.141 16.071 1.755-8.203 7.048-17.153-2.662 9.285zm7.43-18.734l-4.85 12.23 2.184-7.646 5.329-12.262-2.663 7.678zm6.744-17.002l-.852 2.171.431-1.244.741-1.7-.32.773zm-13.512 35.958l.729-1.857-1.07 3.026.341-1.169zm-7.897 20.831l4.878-13.242-2.518 8.271-4.104 11.981 1.747-7.009-.003-.001zm-7.587 20.565l5.407-14.654-2.58 10.419-4.669 14.385 1.845-10.149-.003-.001zm-7.29 20.846l5.898-17.08-2.047 11.304-4.926 16.195 1.078-10.417-.003-.002zm-6.806 20.065l5.799-17.094-1.149 11.127-4.76 16.177.113-10.209-.003-.001zm-6.346 20.106l5.627-17.99-.102 10.546-4.535 16.955-.984-9.518-.006.007zm-5.919 19.27l5.395-17.57 1.013 9.726-4.28 16.461-2.122-8.625-.006.008zm-5.321 19.225l4.937-17.925 2.156 8.743-3.829 16.797-3.275-7.62.011.005zm-5.012 18.397c1.42-5.6 3.124-11.521 4.718-17.316l3.298 7.692-3.623 16.167-4.404-6.548.011.005zm-4.288 18.27l4.07-17.35 4.411 6.564c-1.119 5.537-2.017 10.805-3.001 16.201l-5.491-5.419.011.004zm-4.003 17.58c1.144-5.447 2.506-11.143 3.816-16.78l5.525 5.439-2.805 15.662-6.536-4.321zm-3.332 17.234l3.187-16.49 6.572 4.34c-.833 5.256-1.508 10.316-2.197 15.425l-7.573-3.28.011.005zm-2.96 16.696c.842-5.22 1.82-10.593 2.825-15.997l7.597 3.299-1.91 14.968-8.523-2.274.011.004zm-2.411 16.268l2.302-15.577 8.545 2.273-1.402 14.58-9.456-1.281.011.005zm-1.899 15.83l1.811-15.135 9.486 1.284-.976 14.157-10.332-.311.011.005zm-1.518 15.376c.366-4.759.92-9.733 1.446-14.674l10.345.299-.623 13.727-11.179.644.011.004zm-.802 14.904l.733-14.201 11.211-.653c-.106 4.544-.054 8.902-.029 13.29l-11.926 1.56.011.004zm-.566 14.48c.042-4.429.305-9.13.521-13.767l11.952-1.569.138 12.896-12.611 2.44zm.24 13.955l-.221-13.242 12.641-2.445c.194 4.258.582 8.287.901 12.401l-13.324 3.269.003.017zM876.546 609.81c-144.549 23.085-269.247-7.528-274.153-178.867l13.361-3.299c12.797 160.93 130.744 196.052 266.423 180.981l-5.631 1.185zm29.375-5.363l-4.449.931-5.085.755 5.746-1.372 3.788-.314zm15.126-3.194l-8.55 1.818-5.555.513 7.718-2.053 6.387-.278zm13.689-3.221l-9.67 2.277-6.936.31 9.579-2.563 7.027-.024zm13.557-3.394l-10.316 2.62-7.633.031 10.31-2.978c2.543.147 5.093.22 7.639.327zm13.655-3.587l-11.209 2.953-7.866-.321 11.312-3.411 7.763.779zm13.567-3.825l-11.621 3.277-8.013-.759 12.062-3.752 7.567 1.248.005-.014zm13.733-4.061l-12.054 3.586-7.775-1.225 12.317-4.086 7.512 1.725zm14.042-4.312l-12.639 3.885-7.641-1.729 12.81-4.363 7.47 2.207zm14.16-4.564l-12.99 4.184-7.516-2.214 13.216-4.641 7.29 2.671zm14.3-4.819l-13.23 4.474-7.34-2.688 13.47-4.967 7.1 3.181zm14.54-5.051l-13.57 4.723-7.14-3.194 13.84-5.232 6.87 3.703zm14.75-5.298l-13.87 4.981-6.89-3.714 14.14-5.485 6.62 4.217v.001zm14.94-5.569l-14.13 5.272-6.64-4.232 14.39-5.783 6.39 4.731-.01.012zm15.12-5.816l-14.36 5.542-6.4-4.733 14.66-6.057 6.11 5.225-.01.023zm15.34-6.096l-14.61 5.791-6.11-5.273 14.92-6.313 5.8 5.795zm30.15-71.411c-52.73-52.442-142.925-87.18-293.24-79.1l-19.836-.01-21.685-.986-20.516-2.087-18.758-3.115-19.311-4.764-16.81-5.802-16.213-7.632-14.717-9.35-12.921-11.103-11.435-13.473a568.6 568.6 0 0 1-9.119-15.273c-2.519-6.047-4.96-12.218-7.321-18.511-1.616-6.495-3.126-13.134-4.532-19.915a608.5 608.5 0 0 1-2.227-25.232c.088-7.904.367-16.05.747-24.303 1.176-10.652 2.622-21.621 4.269-32.828 1.902-9.516 4.024-19.286 6.316-29.246 3.631-13.3 7.684-27.069 11.962-41.089l11.735-33.2.544-1.571 6.732-16.972 8.704-21.737 33.999-75.959 49.979-111.749-.649-.255-49.965 111.72-26.827 59.922 11.584-28.907L775.237-137.8l-.647-.254L716.433 7.444l-18.111 45.204-1.427 3.19-4.707 10.823 16.377-47.136 55.874-161.563-.649-.255-55.888 161.605-19.376 55.776-6.876 15.824 22.58-78.814 45.518-159.885-.65-.254-45.537 159.95-24.017 83.868-7.657 18.358 27.505-126.747 30.812-142.84-.655-.257-30.836 142.949-28.311 130.574-7.64 18.718 25.655-186.346 16.137-115.74-.668-.263-16.162 115.909-26.018 188.928-7.588 19.495c2.795-92.842 7.872-176.171 12.411-250.718l5.066-86.286-.682-.268-5.076 86.505-12.483 252.748-7.344 19.346c-10.762-117.09-12.721-220.962-14.44-312.009l-1.296-62.532-.705-.277 1.294 62.821c1.724 91.424 3.693 195.779 14.597 313.489l-7.012 19.593c-33.219-135.954-44.116-258.479-53.59-365.048l-4.553-50.185-.726-.285 4.582 50.53c9.512 106.86 20.432 229.756 53.867 366.195l-6.701 19.217C567.15 75.241 547.391-64.142 530.121-185.941l-7.349-50.939-.749-.294 7.409 51.331c17.293 122.03 37.091 261.711 101.545 408.159l-6.208 19.283-.075-.172-.014-.037-.023-.032C522.378 94.793 495.296-60.778 471.352-198.332l-11.298-63.157-.767-.302 11.379 63.58c23.954 137.61 51.044 293.256 153.42 439.949l.383.886-5.968 18.933-1.094-1.632-.024-.035-.028-.027C472.337 122.096 440.187-49.552 411.381-203.316l-16.456-83.741-.779-.306c5.878 27.201 11.155 55.373 16.551 84.172 28.816 153.86 60.988 325.615 206.152 463.535l1.387 2.065-5.29 18.882-2.868-2.85-.033-.013-.035-.014C418.516 156.761 383.536-32.108 351.906-202.968c-6.988-37.731-13.814-74.588-22.126-109.657l-.79-.31c8.343 35.201 15.188 72.203 22.226 110.106 31.665 170.984 66.677 359.997 258.403 481.795l3.119 3.097-4.984 18.221-5.007-3.321-.063-.025C361.868 197.336 326.145-10.3 293.668-199.016c-8.278-48.112-16.342-95.004-27.543-138.557l-.798-.313c11.256 43.67 19.343 90.707 27.656 138.988 32.493 188.879 68.246 396.704 309.384 496.458l5.198 3.447-4.274 17.876-7.898-3.388-.052-.02C302.969 242.603 268.419 14.41 237.05-192.784c-8.99-59.382-17.723-117.04-32.188-168.84l-.825-.324c14.533 51.891 23.29 109.708 32.304 169.264 31.406 207.398 65.99 435.827 358.792 508.801l7.989 3.424-3.862 17.314-11.211-2.846-.019-.007-.019-.008C242.204 291.662 210.599 40.985 182.084-185.192c-8.996-71.346-17.684-140.255-35.821-199.447l-.825-.324c18.233 59.255 26.944 128.332 35.958 199.866 28.546 226.427 60.19 477.371 406.507 519.785l11.228 2.85-3.281 16.812-15.122-1.787-.017-.006C179.814 343.91 152.849 68.73 128.787-176.838c-8.227-83.97-16.118-164.475-38.487-229.731l-.85-.334c22.488 65.275 30.396 145.964 38.641 230.132 24.091 245.859 51.088 521.359 452.581 530.043l15.055 1.779-2.692 16.281-19.611-.195-.019-.007C115.888 398.782 95.232 96.975 77.073-168.307c-6.668-97.371-12.994-189.83-40.444-259.325l-.886-.347c27.609 69.471 33.954 162.121 40.636 259.717 18.179 265.604 38.87 567.777 497.04 540.102l19.514.192-2.315 15.749-24.516 1.923C164.856 441.261 68.188 252.481 39.893 31.807 31.825-31.124 29.312-96.646 26.887-159.935c-4.293-111.891-8.32-216.796-42.294-288.114l-.938-.368c34.201 71.21 38.239 176.345 42.545 288.501C28.627-96.61 31.142-31.065 39.212 31.899c28.34 221.037 125.143 410.137 526.958 358.502l24.35-1.912c-.634 5.216-1.032 10.166-1.494 15.186l-30.226 4.594C156.109 483.122 33.925 328.232-4.014 123.832-20.267 36.256-21.067-60.42-21.823-152.013c-1.042-126.568-2.008-243.443-43.555-313.348-.612-1.03-1.247-2.032-1.877-3.041l-1.095-.43 2.359 3.821c41.453 69.741 42.419 186.524 43.462 312.994.756 91.625 1.554 188.331 17.818 275.966C33.29 328.716 155.665 483.897 558.902 408.941l30.051-4.562-1.224 14.683-36.237 7.76C136.916 524.211-3.845 390.201-49.655 194.944-74.147 90.557-71.525-31.356-69.09-144.782c2.541-118.227 4.881-227.245-23.893-297.688l-.366.932c28.43 70.325 26.096 178.961 23.561 296.752-2.441 113.465-5.052 235.424 19.45 339.901 45.899 195.627 186.862 329.924 601.98 232.392l36.056-7.727c-.267 4.848-.388 9.529-.485 14.184l-43.023 11.427c-431.394 119.647-588.032.811-640.604-188.985-32.583-117.621-25.233-262.517-18.522-394.819 4.709-92.777 9.081-179.336-.813-246.035l-.513 1.307c9.665 66.451 5.304 152.512.628 244.692-6.712 132.356-14.063 277.311 18.549 395.042 52.677 190.169 209.533 309.252 641.466 189.46l42.816-11.375c-3.581 185.46 132.512 209.351 289.434 175.918a714.21 714.21 0 0 0 24.93-4.459c7.464-1.072 14.965-2.279 22.502-3.621a686.8 686.8 0 0 0 24.046-3.305c7.371-.706 14.755-1.55 22.154-2.532a722.1 722.1 0 0 0 23.083-1.945 659.93 659.93 0 0 0 21.584-1.107c7.34.044 14.64-.041 21.9-.254l21.1.771c6.74.72 13.41 1.33 19.98 1.832l8.77 1.476.26-.663-1.71-.287 1.77.114.35-.883-5.57-1.548 6.22-.12.27-.685-8.95.144-6.91-2.001 9.52-.801 6.39 2.528.25-.644-5.1-2.022 6.12-.576.29-.732-7.86.727-7.02-2.836 10.89-1.66 4.54 2.37.25-.65-3.64-1.918 4.69-.751.3-.756-6.03.974-6.81-3.595 11.89-2.549 2.36 1.562.26-.66-1.68-1.115 2.32-.52.31-.789-3.45.769-6.51-4.278 12.69-3.431.32-.826-.13.037-6.22-4.902 9.45-3.038.34-.861-10.46 3.367-6.26-4.851 13.9-4.96 3.94 3.593.26-.671-3.47-3.173 5.51-2.019.35-.889-6.46 2.353-6-5.369 14.53-5.774.98.997.28-.71-.56-.572.93-.369.36-.911-1.83.739-5.81-5.811 11.6-5.01.36-.935-12.53 5.411c-58.67-56.876-149.122-111.355-288.345-140.94l9.251-.755C968.95 413.488 1059.19 466.995 1114.4 526.79l.29-.735c-54.88-59.36-144.235-112.478-289.527-132.971l8.192-.558c146.673 10.597 235.135 58.285 288.035 116.477l.3-.776c-52.4-57.527-139.51-104.761-283.218-116.059l4.893-.332c145.936 1.818 233.615 43.074 285.365 98.417l.33-.826c-50.24-53.631-134.158-94.033-272.151-98.103 142.081-5.271 228.331 28.943 279.341 79.78l.34-.875z" fill="url(#I)"></path><g filter="url(#A)"><circle cx="145.5" cy="145.5" r="145.5" transform="matrix(-1 0 0 1 350 62)" fill="#159f9b" fill-opacity=".9"></circle></g><g filter="url(#B)"><circle cx="104.5" cy="104.5" r="104.5" transform="matrix(-1 0 0 1 460 284)" fill="#114b5f" fill-opacity=".26"></circle></g><g filter="url(#C)"><path d="M180.055 109.328a1 1 0 1 1 1.89-.656l-1.89.656zM203.5 160l-.856.517h0l.856-.517zM181 109l.945-.328.007.022.025.069.095.273.375 1.054 1.424 3.911 5.086 13.136c4.215 10.412 9.816 23.1 15.399 32.346l-1.712 1.034c-5.67-9.389-11.319-22.2-15.541-32.63-2.114-5.222-3.875-9.859-5.108-13.192l-1.431-3.931-.378-1.064-.097-.276-.025-.071-.008-.023c-.001-.002-.001-.002.944-.33zm23.356 50.483c5.561 9.209 14.143 20.034 21.361 28.582a468.78 468.78 0 0 0 9.213 10.58l2.784 3.071.755.82.196.211.05.053c.013.015.014.016.015.016s.001.001-.73.684l-.731.682c-.007-.008-.012-.012-.017-.018l-.051-.055-.199-.214-.762-.827-2.799-3.087a472.97 472.97 0 0 1-9.252-10.626c-7.23-8.562-15.898-19.487-21.545-28.838l1.712-1.034z" fill="url(#J)"></path></g><path d="M180.528 109.164a.5.5 0 0 1 .308-.636.5.5 0 0 1 .636.308l-.944.328zM203.5 160l-.428.258h0l.428-.258zM181 109l.472-.164c.004.009.006.015.008.023l.025.069.096.274.375 1.057 1.426 3.916 5.092 13.149c4.216 10.417 9.829 23.136 15.434 32.418l-.856.516c-5.648-9.353-11.285-22.133-15.505-32.558-2.112-5.216-3.871-9.849-5.103-13.178l-1.43-3.927-.377-1.061-.096-.275-.025-.071c-.007-.02-.007-.021-.008-.022s0-.002.472-.166zm22.928 50.742c5.583 9.244 14.186 20.094 21.407 28.646a469.95 469.95 0 0 0 9.223 10.591l2.788 3.075.757.822.196.211.05.054c.014.015.015.016.015.017s.001.001-.364.342l-.366.341c-.007-.008-.011-.012-.017-.018l-.05-.055-.198-.213-.76-.825-2.796-3.083a473.67 473.67 0 0 1-9.242-10.614c-7.227-8.559-15.873-19.459-21.499-28.775l.856-.516z" fill="url(#J)"></path><g filter="url(#D)"><path d="M386.556 205.841a1 1 0 1 1 1.415-1.414l-1.415 1.414zm43.177 35.398l-.545.838h0l.545-.838zm-42.47-36.105l.708-.707.016.017.052.051.205.204.797.786 2.985 2.9a472.82 472.82 0 0 0 10.3 9.608c8.33 7.536 18.899 16.518 27.952 22.408l-1.09 1.676c-9.194-5.981-19.86-15.052-28.203-22.601a471.13 471.13 0 0 1-10.345-9.649l-3.001-2.915-.803-.793-.208-.207-.054-.053-.017-.017c-.001-.001-.001-.001.706-.708zm43.015 35.267c9.018 5.867 21.458 11.872 31.679 16.422l12.901 5.511 3.845 1.551 1.036.409.268.104.068.027c.019.007.02.008.021.008s.001 0-.359.933l-.361.933c-.01-.004-.016-.006-.024-.009-.015-.007-.039-.016-.07-.028l-.272-.106-1.045-.412-3.864-1.56a471.06 471.06 0 0 1-12.958-5.534c-10.237-4.557-22.799-10.615-31.955-16.573l1.09-1.676z" fill="url(#K)"></path></g><path d="M386.91 205.487a.5.5 0 0 1 0-.707.5.5 0 0 1 .707.001l-.707.706zm42.823 35.752l-.273.419h0l.273-.419zm-42.47-36.105l.354-.353.017.017.052.052.206.204.798.788 2.99 2.904a471.91 471.91 0 0 0 10.311 9.618c8.333 7.539 18.926 16.543 28.015 22.456l-.546.838c-9.158-5.958-19.8-15.007-28.14-22.552-4.173-3.776-7.775-7.18-10.333-9.64l-2.998-2.911-.801-.791-.208-.206-.052-.053c-.015-.014-.016-.016-.017-.016s-.001-.002.352-.355zm42.743 35.686c9.052 5.89 21.523 11.908 31.747 16.46l12.916 5.516 3.849 1.554 1.039.409.269.105.068.027c.019.007.021.008.022.008s.001.001-.179.467l-.181.466c-.009-.003-.015-.006-.023-.009l-.069-.027-.271-.105-1.044-.412-3.859-1.557c-3.272-1.34-7.823-3.249-12.943-5.528-10.234-4.556-22.765-10.601-31.887-16.536l.546-.838z" fill="url(#K)"></path><g filter="url(#E)"><path d="M42.43 59.454a1 1 0 1 1 1.982-.269l-1.982.269zm12.933 54.314l-.942.337h0l.942-.337zM43.421 59.319l.991-.134.003.023.01.072.04.286.158 1.108.62 4.116 2.381 13.883c2.067 11.041 5.041 24.588 8.68 34.758l-1.883.673c-3.696-10.326-6.693-24.003-8.763-35.063l-2.391-13.943-.624-4.137-.16-1.117-.04-.29-.01-.074-.003-.024c0-.002 0-.002.991-.136zm12.884 54.112c3.625 10.128 9.89 22.44 15.27 32.249l6.932 12.197 2.12 3.562.578.953.15.246.038.062.012.019c.001.001.001.001-.851.525l-.852.524-.013-.022-.039-.064-.152-.249-.583-.961-2.131-3.581a472.92 472.92 0 0 1-6.962-12.249c-5.389-9.826-11.719-22.252-15.4-32.538l1.883-.673z" fill="url(#L)"></path></g><path d="M42.926 59.386a.5.5 0 1 1 .991-.134l-.991.134zm12.438 54.381l-.471.169h0l.471-.169zM43.421 59.319l.495-.067.003.024.01.073.04.287.158 1.11.621 4.121 2.383 13.898c2.068 11.045 5.047 24.625 8.701 34.834l-.942.337c-3.682-10.287-6.673-23.932-8.742-34.987l-2.388-13.928-.623-4.132-.159-1.115-.04-.289-.01-.074-.003-.023a11.31 11.31 0 0 1 .495-.069zm12.413 54.28c3.639 10.168 9.921 22.508 15.303 32.322l6.94 12.209 2.123 3.567.579.955.151.247.038.062.012.02c.001.001.001.001-.425.263l-.426.262c-.005-.009-.009-.014-.013-.022l-.039-.063-.152-.248-.581-.959-2.129-3.576a471.28 471.28 0 0 1-6.954-12.237c-5.387-9.821-11.7-22.219-15.367-32.465l.942-.337z" fill="url(#L)"></path><g filter="url(#F)"><path d="M115.742 354.589a1 1 0 0 1 1.233-1.575l-1.233 1.575zm47.142 29.915l-.44.898h0l.44-.898zm-46.525-30.702l.616-.788.019.015.057.045.228.177.886.684 3.315 2.518a471.07 471.07 0 0 0 11.387 8.291c9.18 6.473 20.757 14.11 30.457 18.862l-.88 1.796c-9.849-4.825-21.534-12.54-30.73-19.023-4.604-3.247-8.595-6.193-11.436-8.327l-3.332-2.531-.893-.69-.231-.18-.06-.046-.019-.015c-.001-.001-.001-.001.616-.788zm46.965 29.804c9.661 4.733 22.737 9.189 33.433 12.469 5.341 1.637 10.075 2.978 13.473 3.909l4.004 1.075 1.079.28.278.072.071.017a.21.21 0 0 1 .021.006c.002 0 .002 0-.243.97l-.246.969c-.01-.002-.016-.004-.024-.006l-.073-.018-.283-.073-1.088-.283-4.024-1.08a473.79 473.79 0 0 1-13.532-3.926c-10.714-3.286-23.916-7.779-33.726-12.585l.88-1.796z" fill="url(#M)"></path></g><path d="M116.05 354.195a.5.5 0 0 1 .617-.787l-.617.787zm46.834 30.309l-.22.449h0l.22-.449zm-46.525-30.702l.308-.394.019.015.058.045.229.178.888.686 3.318 2.52c2.832 2.128 6.811 5.065 11.4 8.301 9.183 6.475 20.788 14.132 30.525 18.902l-.44.898c-9.812-4.807-21.47-12.502-30.662-18.983-4.599-3.243-8.586-6.186-11.423-8.318l-3.328-2.527-.891-.689-.231-.179-.059-.046c-.016-.013-.018-.014-.018-.015s-.002-.001.307-.394zm46.745 30.253c9.698 4.751 22.806 9.216 33.506 12.498 5.347 1.639 10.086 2.981 13.488 3.913l4.009 1.076 1.081.281.28.072.071.018c.019.005.021.005.022.006s.001 0-.121.485l-.123.484c-.01-.002-.016-.004-.024-.006l-.072-.018-.282-.072-1.086-.282-4.019-1.079a472.4 472.4 0 0 1-13.517-3.922c-10.71-3.284-23.88-7.769-33.653-12.556l.44-.898z" fill="url(#M)"></path><g filter="url(#G)"><path d="M373.448 359.529a1 1 0 0 1-.732-1.21 1 1 0 0 1 1.21-.731l-.478 1.941zm55.263 7.953l-.033.999h0l.033-.999zm-55.024-8.923l.24-.971.023.005.071.018.28.068 1.089.26 4.055.937a469.2 469.2 0 0 0 13.785 2.893c11.027 2.139 24.719 4.357 35.514 4.713l-.066 1.999c-10.962-.362-24.783-2.606-35.828-4.749a469.94 469.94 0 0 1-13.845-2.905l-4.077-.941-1.097-.263-.285-.07-.073-.017-.024-.006c-.001-.001-.001-.001.238-.971zm55.057 7.923c10.752.355 24.505-.943 35.605-2.337 5.543-.697 10.411-1.415 13.892-1.96l4.092-.661 1.099-.187.284-.049.071-.013c.02-.003.021-.003.022-.004a37.15 37.15 0 0 1 .176.985l.173.985c-.01.002-.016.003-.025.004l-.073.013-.288.05-1.108.188-4.114.665-13.951 1.968c-11.119 1.397-25.003 2.712-35.921 2.352l.066-1.999z" fill="url(#N)"></path></g><path d="M373.567 359.044a.5.5 0 1 1 .24-.971l-.24.971zm55.144 8.438l-.017.499h0l.017-.499zm-55.024-8.923l.12-.486c.01.002.015.004.023.006l.072.017.282.069 1.09.261 4.061.938a468.91 468.91 0 0 0 13.8 2.896c11.032 2.14 24.756 4.364 35.592 4.722l-.033.999c-10.92-.36-24.708-2.597-35.749-4.739-5.524-1.072-10.368-2.121-13.83-2.903l-4.071-.94-1.096-.262-.284-.069-.072-.018c-.02-.005-.022-.005-.023-.006s-.002 0 .118-.485zm55.04 8.423c10.794.356 24.58-.946 35.685-2.341 5.549-.697 10.421-1.417 13.906-1.962l4.098-.662 1.101-.187.285-.05.072-.012c.02-.004.021-.004.022-.004s.002 0 .089.492l.086.492c-.01.002-.016.003-.024.005l-.073.013-.287.049-1.106.188-4.108.664-13.937 1.966c-11.114 1.397-24.965 2.707-35.842 2.348l.033-.999z" fill="url(#N)"></path><g filter="url(#H)"><path d="M334.535-6.117a1 1 0 1 1 1.926-.539l-1.926.539zm20.293 52.014l-.886.463h0l.886-.463zm-19.33-52.284l.963-.269.007.023.02.07.078.278.31 1.076 1.181 3.991c1.022 3.387 2.489 8.104 4.271 13.423 3.568 10.651 8.38 23.659 13.386 33.23l-1.772.927c-5.083-9.719-9.936-22.853-13.51-33.521l-4.289-13.48-1.188-4.012-.312-1.085-.08-.282-.021-.072c-.005-.021-.006-.022-.006-.023s-.001-.002.962-.271zm20.216 51.821c4.986 9.533 12.888 20.864 19.568 29.838 3.336 4.481 6.358 8.364 8.546 11.125l2.591 3.236.704.865.182.222.046.056a.17.17 0 0 0 .015.017c0 .001.001.001-.771.638l-.771.636-.017-.019c-.01-.013-.026-.032-.047-.058l-.185-.226-.71-.872-2.604-3.253a471.99 471.99 0 0 1-8.583-11.173c-6.692-8.99-14.673-20.426-19.736-30.106l1.772-.927z" fill="url(#O)"></path></g><path d="M335.017-6.252a.5.5 0 1 1 .963-.27l-.963.27zm19.811 52.149l-.443.232h0l.443-.232zm-19.33-52.284l.482-.135c.003.009.004.015.006.023l.02.071.08.279.309 1.078 1.184 3.996a467.44 467.44 0 0 0 4.275 13.437c3.57 10.655 8.392 23.695 13.417 33.303l-.886.463c-5.064-9.682-9.906-22.784-13.479-33.448L336.621-.786l-1.186-4.007-.311-1.082-.08-.281-.02-.072c-.006-.02-.006-.022-.007-.023s0-.002.481-.136zm19.773 52.052c5.005 9.57 12.927 20.927 19.61 29.905a470.02 470.02 0 0 0 8.556 11.137l2.594 3.24.705.866.183.223c.021.025.036.044.046.056l.015.018a12.6 12.6 0 0 1-.385.319l-.386.318c-.006-.008-.01-.013-.016-.019-.01-.013-.026-.032-.047-.057l-.184-.225-.708-.87-2.601-3.249c-2.196-2.771-5.228-6.665-8.574-11.161-6.689-8.986-14.65-20.395-19.694-30.039l.886-.463z" fill="url(#O)"></path><g fill="#fff"><circle cx="2.5" cy="2.5" r="2.5" transform="matrix(-1 0 0 1 171 71)"></circle><circle cx="2.5" cy="2.5" r="2.5" transform="matrix(-1 0 0 1 111 247)"></circle><circle cx="2.5" cy="2.5" r="2.5" transform="matrix(-1 0 0 1 399 321)"></circle></g></g><defs><filter id="A" x="-21" y="-18" width="451" height="451" filterUnits="userSpaceOnUse" class="B"><feGaussianBlur stdDeviation="40"></feGaussianBlur></filter><filter id="B" x="161" y="194" width="389" height="389" filterUnits="userSpaceOnUse" class="B"><feGaussianBlur stdDeviation="45"></feGaussianBlur></filter><filter id="C" x="178" y="106" width="62.731" height="100.182" filterUnits="userSpaceOnUse" class="B"><feGaussianBlur stdDeviation="1"></feGaussianBlur></filter><filter id="D" x="384.263" y="202.134" width="97.834" height="66.165" filterUnits="userSpaceOnUse" class="B"><feGaussianBlur stdDeviation="1"></feGaussianBlur></filter><filter id="E" x="40.421" y="56.319" width="42.985" height="109.449" filterUnits="userSpaceOnUse" class="B"><feGaussianBlur stdDeviation="1"></feGaussianBlur></filter><filter id="F" x="113.358" y="350.802" width="104.326" height="54.572" filterUnits="userSpaceOnUse" class="B"><feGaussianBlur stdDeviation="1"></feGaussianBlur></filter><filter id="G" x="370.687" y="355.558" width="115.471" height="14.983" filterUnits="userSpaceOnUse" class="B"><feGaussianBlur stdDeviation="1"></feGaussianBlur></filter><filter id="H" x="332.498" y="-9.387" width="56.868" height="103.454" filterUnits="userSpaceOnUse" class="B"><feGaussianBlur stdDeviation="1"></feGaussianBlur></filter><linearGradient id="I" x1="52.5" y1="86" x2="651.5" y2="238" href="#Q"><stop stop-color="#fff" stop-opacity=".38"></stop><stop offset="1" stop-color="#fff" stop-opacity="0"></stop></linearGradient><linearGradient id="J" x1="185.5" y1="121" x2="201" y2="158" href="#Q"><stop stop-color="#fff"></stop><stop offset="1" stop-color="#fff" stop-opacity="0"></stop></linearGradient><linearGradient id="K" x1="396.541" y1="213.975" x2="426.611" y2="240.528" href="#Q"><stop stop-color="#fff"></stop><stop offset="1" stop-color="#fff" stop-opacity="0"></stop></linearGradient><linearGradient id="L" x1="45.453" y1="71.973" x2="53.309" y2="111.312" href="#Q"><stop stop-color="#fff"></stop><stop offset="1" stop-color="#fff" stop-opacity="0"></stop></linearGradient><linearGradient id="M" x1="126.638" y1="361.456" x2="159.699" y2="384.175" href="#Q"><stop stop-color="#fff"></stop><stop offset="1" stop-color="#fff" stop-opacity="0"></stop></linearGradient><linearGradient id="N" x1="386.201" y1="361.324" x2="425.672" y2="368.488" href="#Q"><stop stop-color="#fff"></stop><stop offset="1" stop-color="#fff" stop-opacity="0"></stop></linearGradient><linearGradient id="O" x1="339.254" y1="5.866" x2="352.455" y2="43.747" href="#Q"><stop stop-color="#fff"></stop><stop offset="1" stop-color="#fff" stop-opacity="0"></stop></linearGradient><clipPath id="P"><rect width="1296" height="500" rx="32" fill="#fff"></rect></clipPath><linearGradient id="Q" gradientUnits="userSpaceOnUse"></linearGradient></defs></svg>